<svg xmlns="http://www.w3.org/2000/svg" width="1000pt" height="1000pt" viewBox="0 0 1000 1000"><g data-name="Layer 1"><clipPath id="a"><path transform="matrix(1 0 0 -1 0 1000)" d="M0 1000h1000V0H0z"/></clipPath><g clip-path="url(#a)"><path d="M210.005 663.726v-68.55c0-1.431.496-2.661 1.487-3.688.991-1.028 2.202-1.542 3.634-1.542h16.187c1.285 0 2.643.514 4.075 1.542a13.464 13.464 0 0 1 3.524 3.688l33.256 51.152v-51.262c0-1.432.504-2.643 1.514-3.634 1.01-.991 2.23-1.486 3.661-1.486h9.471c1.431 0 2.651.495 3.661 1.486 1.01.99 1.514 2.239 1.514 3.744v68.55c0 1.432-.505 2.652-1.514 3.662-1.01 1.01-2.23 1.514-3.66 1.514h-18.28c-1.433 0-2.9-.504-4.406-1.514-1.505-1.01-2.698-2.23-3.579-3.662l-30.448-47.241v47.24c0 1.433-.505 2.653-1.514 3.663-1.01 1.01-2.23 1.514-3.662 1.514h-9.69c-1.432 0-2.662-.504-3.689-1.514-1.028-1.01-1.542-2.23-1.542-3.662M310.047 663.615v-68.55c0-1.43.514-2.642 1.542-3.634 1.027-.99 2.257-1.486 3.69-1.486h63.483c1.431 0 2.652.515 3.661 1.542 1.01 1.027 1.515 2.257 1.515 3.69v5.174c0 1.432-.505 2.653-1.515 3.661-1.009 1.011-2.23 1.515-3.66 1.515h-47.958v16.023H372.1c1.431 0 2.651.504 3.661 1.513 1.01 1.011 1.515 2.231 1.515 3.662v5.176c0 1.432-.505 2.652-1.515 3.661-1.01 1.01-2.23 1.514-3.66 1.514h-41.296v16.243h47.847c1.395 0 2.588.495 3.58 1.486.99.992 1.485 2.204 1.485 3.635v5.285c0 1.432-.514 2.653-1.54 3.662-1.029 1.01-2.259 1.514-3.69 1.514h-63.209c-1.432 0-2.662-.504-3.689-1.514-1.028-1.009-1.542-2.266-1.542-3.772M389.827 594.57c-.184-.44-.275-.944-.275-1.515 0-.568.32-1.228.963-1.98.642-.753 1.605-1.13 2.891-1.13h12.058c1.432 0 2.753.495 3.965 1.486a8.148 8.148 0 0 1 2.587 3.744l14.536 43.608 13.435-43.608c1.064-3.486 3.248-5.23 6.552-5.23h10.131c3.303 0 5.487 1.744 6.552 5.23l13.435 43.608 14.536-43.608a8.135 8.135 0 0 1 2.588-3.744c1.211-.99 2.532-1.486 3.963-1.486h12.06c1.246 0 2.191.377 2.835 1.13.641.752.962 1.412.962 1.98a4.83 4.83 0 0 1-.219 1.515l-24.557 68.715c-1.358 3.744-4 5.616-7.929 5.616h-7.983c-4.075 0-6.7-1.872-7.874-5.616l-13.435-42.397-13.434 42.397c-1.212 3.744-3.836 5.616-7.874 5.616h-8.038c-3.892 0-6.516-1.872-7.874-5.616zM518.115 600.352v-5.176c0-1.505.495-2.753 1.486-3.744.992-.991 2.24-1.486 3.744-1.486h69.872c1.504 0 2.752.495 3.744 1.486.991.99 1.486 2.239 1.486 3.744v5.176c0 1.506-.495 2.744-1.486 3.717-.992.972-2.24 1.459-3.744 1.459H568.66v58.308c0 1.432-.505 2.634-1.515 3.607-1.009.972-2.229 1.459-3.66 1.459h-10.407c-1.432 0-2.652-.487-3.66-1.46-1.012-.972-1.516-2.174-1.516-3.606v-58.308h-24.557c-1.505 0-2.752-.487-3.744-1.46-.99-.972-1.486-2.21-1.486-3.716M665.839 609.767c-3.708-4.404-9.7-6.607-17.977-6.607-8.278 0-14.28 2.203-18.004 6.607-3.727 4.405-5.59 10.967-5.59 19.685 0 8.717 1.863 15.27 5.59 19.656 3.724 4.387 9.726 6.579 18.004 6.579 8.277 0 14.269-2.192 17.977-6.58 3.707-4.385 5.562-10.938 5.562-19.655 0-8.718-1.855-15.28-5.562-19.685m15.06 50.958c-7.508 6.59-18.52 9.884-33.037 9.884-14.518 0-25.54-3.294-33.064-9.884-7.524-6.588-11.287-17.021-11.287-31.302 0-14.278 3.763-24.702 11.287-31.273 7.524-6.57 18.546-9.857 33.064-9.857 14.517 0 25.529 3.287 33.037 9.857 7.505 6.57 11.259 16.995 11.259 31.273 0 14.28-3.754 24.714-11.26 31.302M705.7 663.726v-68.55c0-1.431.495-2.661 1.486-3.688.992-1.028 2.202-1.542 3.634-1.542h16.188c1.284 0 2.643.514 4.074 1.542a13.464 13.464 0 0 1 3.524 3.688l33.256 51.152v-51.262c0-1.432.505-2.643 1.515-3.634 1.01-.991 2.23-1.486 3.661-1.486h9.471c1.431 0 2.651.495 3.661 1.486 1.01.99 1.514 2.239 1.514 3.744v68.55c0 1.432-.505 2.652-1.514 3.662-1.01 1.01-2.23 1.514-3.66 1.514h-18.282c-1.43 0-2.9-.504-4.404-1.514-1.506-1.01-2.698-2.23-3.579-3.662l-30.448-47.241v47.24c0 1.433-.505 2.653-1.515 3.663-1.01 1.01-2.229 1.514-3.66 1.514h-9.692c-1.43 0-2.662-.504-3.689-1.514-1.028-1.01-1.54-2.23-1.54-3.662" fill="#0988e3"/><path d="M341.29 717.34c0-.666.198-1.144.593-1.432.396-.288.78-.432 1.153-.432h2.018c1.017 0 1.791.554 2.322 1.662.531 1.107 1.724 1.66 3.577 1.66l5.934.119c1.989 0 2.984-.65 2.984-1.95 0-.982-1.216-1.756-3.645-2.321a84.367 84.367 0 0 0-3.595-.772 41.42 41.42 0 0 1-3.907-.958 24.147 24.147 0 0 1-3.569-1.356c-1.085-.52-1.964-1.235-2.636-2.145-.672-.91-1.009-1.98-1.009-3.212 0-2.272.808-4.02 2.425-5.247 1.616-1.226 4.396-1.84 8.34-1.84l4.307.102c2.316 0 4.404.597 6.264 1.789 1.859 1.192 2.788 2.682 2.788 4.467 0 .667-.198 1.147-.593 1.44-.396.295-.774.442-1.136.442h-2.017c-1.017 0-1.792-.557-2.323-1.67-.531-1.114-1.723-1.67-3.577-1.67l-5.103-.102c-1.989 0-2.983.65-2.983 1.949 0 .712.63 1.295 1.89 1.747 1.26.452 2.786.85 4.577 1.195 1.791.345 3.591.76 5.4 1.246 1.808.486 3.342 1.286 4.603 2.399 1.259 1.114 1.89 2.5 1.89 4.162 0 2.272-.811 4.02-2.433 5.247-1.622 1.226-4.399 1.839-8.332 1.839l-5.137-.101c-2.317 0-4.408-.597-6.273-1.79-1.865-1.192-2.797-2.68-2.797-4.466M373.887 721.935v-21.038c0-.464.152-.854.458-1.17a1.496 1.496 0 0 1 1.119-.475h6.9c.44 0 .858.159 1.254.475.395.316.66.695.797 1.136l5 14.477 5.002-14.477c.136-.441.4-.82.797-1.136.395-.316.814-.475 1.255-.475h6.899c.44 0 .81.159 1.11.475.3.316.45.706.45 1.17v21.038c0 .464-.156.85-.466 1.162a1.536 1.536 0 0 1-1.128.466h-3.051c-.441 0-.817-.155-1.127-.466a1.577 1.577 0 0 1-.467-1.162v-16.562l-5.984 16.665a2.426 2.426 0 0 1-.831 1.076c-.396.3-.814.449-1.255.449h-2.424c-.44 0-.856-.15-1.246-.45-.39-.3-.67-.657-.84-1.075l-5.967-16.665v16.562c0 .464-.155.85-.465 1.162a1.536 1.536 0 0 1-1.128.466h-3.052c-.44 0-.82-.155-1.135-.466a1.56 1.56 0 0 1-.475-1.162M420.877 712.9h10.798v-8.85h-4.832c-1.084 0-2.03.307-2.84.923-.807.616-1.352 1.445-1.634 2.484zm-8.917 9.103 4.255-16.14c1.153-4.397 4.905-6.6 11.256-6.61h9.138c.418 0 .766.157 1.043.473.277.317.415.684.415 1.102v21.175c0 .44-.159.81-.476 1.11a1.59 1.59 0 0 1-1.135.45h-3.187c-.464 0-.845-.15-1.144-.45-.3-.3-.45-.68-.45-1.145v-4.272h-12.053l-1.137 4.272a1.997 1.997 0 0 1-.762 1.145c-.395.3-.813.45-1.255.45h-3.34c-.44 0-.756-.128-.948-.383-.193-.254-.286-.476-.28-.669.006-.192.026-.362.06-.508M453.472 709.882h7.222c1.164 0 2.19-.231 3.077-.695.887-.464 1.331-1.204 1.331-2.221 0-1.018-.444-1.758-1.33-2.221-.888-.464-1.914-.695-3.078-.695h-7.222zm18.852 12.952c0 .486-.289.729-.865.729h-4.069c-.429 0-.9-.156-1.415-.466-.515-.312-.907-.687-1.178-1.128l-2.882-4.51c-1.187-1.852-2.623-2.78-4.306-2.78h-4.137v7.29c0 .44-.155.816-.466 1.128a1.54 1.54 0 0 1-1.127.466h-3.188a1.57 1.57 0 0 1-1.136-.466 1.526 1.526 0 0 1-.474-1.128v-21.107c0-.44.152-.82.457-1.135a1.496 1.496 0 0 1 1.12-.475h13.986c2.588 0 4.71.695 6.366 2.085 1.655 1.39 2.483 3.267 2.483 5.629 0 3.289-2.13 5.352-6.39 6.187.677.25 1.304.676 1.881 1.28.576.605 1.237 1.484 1.983 2.636l3.086 4.9c.18.316.271.604.271.865M477.05 702.456v-1.594c0-.463.153-.847.458-1.152.305-.306.689-.458 1.153-.458h21.513c.463 0 .848.152 1.152.458.306.305.458.69.458 1.152v1.594c0 .464-.152.845-.458 1.145-.304.3-.69.45-1.152.45h-7.561v17.952c0 .44-.155.81-.466 1.11-.311.3-.687.45-1.128.45h-3.204c-.44 0-.816-.15-1.127-.45a1.48 1.48 0 0 1-.466-1.11V704.05h-7.561c-.464 0-.848-.15-1.153-.449-.305-.3-.458-.68-.458-1.145M525.035 721.969v-21.106c0-.441.158-.82.476-1.136a1.584 1.584 0 0 1 1.17-.475h3.152c.441 0 .816.158 1.128.475.31.316.466.695.466 1.136v7.628h11.664v-7.628c0-.441.158-.82.474-1.136a1.55 1.55 0 0 1 1.136-.475h3.153c.463 0 .85.158 1.161.475.311.316.466.695.466 1.136v21.106c0 .44-.16.816-.482 1.128-.322.31-.704.466-1.145.466h-3.153a1.6 1.6 0 0 1-1.136-.45 1.47 1.47 0 0 1-.474-1.11v-8.714h-11.664v8.714c0 .44-.156.81-.466 1.11a1.57 1.57 0 0 1-1.128.45h-3.153c-.44 0-.826-.156-1.153-.466a1.5 1.5 0 0 1-.492-1.128M576.314 705.355c-1.142-1.356-2.986-2.035-5.534-2.035-2.55 0-4.398.68-5.543 2.035-1.149 1.355-1.721 3.376-1.721 6.061 0 2.684.572 4.701 1.72 6.051 1.146 1.351 2.995 2.027 5.543 2.027 2.55 0 4.393-.676 5.535-2.027 1.143-1.35 1.713-3.367 1.713-6.05 0-2.686-.57-4.707-1.713-6.062m4.637 15.69c-2.312 2.03-5.702 3.042-10.172 3.042-4.47 0-7.863-1.013-10.18-3.043-2.317-2.028-3.475-5.24-3.475-9.637s1.158-7.607 3.475-9.629c2.317-2.024 5.71-3.035 10.18-3.035s7.86 1.011 10.172 3.035c2.311 2.022 3.467 5.232 3.467 9.63 0 4.395-1.156 7.608-3.467 9.636M592.06 721.935v-21.038c0-.464.153-.854.458-1.17a1.5 1.5 0 0 1 1.119-.475h6.9c.44 0 .859.159 1.254.475.396.316.662.695.797 1.136l5 14.477 5.002-14.477c.136-.441.402-.82.797-1.136.396-.316.814-.475 1.255-.475h6.899c.442 0 .81.159 1.11.475.3.316.45.706.45 1.17v21.038c0 .464-.155.85-.466 1.162a1.535 1.535 0 0 1-1.128.466h-3.051c-.441 0-.817-.155-1.127-.466-.311-.311-.466-.698-.466-1.162v-16.562l-5.985 16.665c-.158.418-.435.776-.831 1.076-.395.3-.813.449-1.254.449h-2.424c-.441 0-.857-.15-1.246-.45-.39-.3-.67-.657-.84-1.075l-5.967-16.665v16.562c0 .464-.155.85-.466 1.162a1.535 1.535 0 0 1-1.128.466h-3.051c-.441 0-.82-.155-1.135-.466a1.558 1.558 0 0 1-.476-1.162M632.132 721.935v-21.106c0-.441.158-.814.476-1.12a1.575 1.575 0 0 1 1.135-.457h19.547c.44 0 .817.159 1.127.475.31.316.466.695.466 1.136v1.593c0 .44-.155.817-.466 1.127a1.53 1.53 0 0 1-1.127.467h-14.766v4.934h12.714c.44 0 .817.155 1.127.466.312.31.467.686.467 1.127v1.593c0 .442-.155.817-.467 1.128-.31.31-.686.466-1.127.466h-12.714v5h14.732a1.5 1.5 0 0 1 1.102.459c.305.305.458.678.458 1.119v1.627c0 .442-.16.817-.475 1.128a1.562 1.562 0 0 1-1.136.466h-19.462c-.441 0-.82-.155-1.135-.466a1.558 1.558 0 0 1-.476-1.162" fill="#5e5e5e"/><path d="M425.162 494.363v17.852c0 .834.294 1.606.792 2.195a3.148 3.148 0 0 0 2.293 1.126l18.112.778c1.115.043 1.99-.313 2.563-.96.486-.555.752-1.32.752-2.23v-17.886c0-1.007-.321-1.837-.878-2.434-.611-.653-1.514-1.032-2.602-1.058l-17.858-.425c-.871-.022-1.632.248-2.191.736-.613.537-.983 1.338-.983 2.306m33.115-32.253v17.97c0 1.126.394 2.024 1.068 2.627.618.552 1.479.864 2.495.885l18.739.359c1.04.017 1.982-.333 2.632-.971.57-.555.918-1.333.918-2.276v-18.737c0-.888-.385-1.704-.996-2.296-.676-.655-1.541-.98-2.475-.98h-18.843c-1.014 0-1.875.293-2.49.835-.664.583-1.048 1.46-1.048 2.584m-33.115-.053v17.622c0 .97.36 1.81.969 2.398.552.53 1.315.856 2.198.873l17.875.343c1.046.024 1.953-.286 2.573-.885.564-.542.897-1.325.897-2.307v-18.137c0-.914-.326-1.708-.876-2.283-.592-.621-1.451-.99-2.434-.99H428.46c-.975 0-1.768.294-2.33.82-.625.587-.97 1.464-.97 2.546m33.116 33.195v18.202c0 1.005.347 1.847.936 2.453.616.634 1.5 1.015 2.534 1.066l18.816.805c1.095.048 2.063-.291 2.713-.95.532-.542.853-1.298.853-2.237v-18.466c0-.943-.297-1.74-.806-2.333-.655-.764-1.661-1.208-2.842-1.23l-18.712-.447c-.93-.021-1.785.238-2.414.747-.661.53-1.078 1.342-1.078 2.39" fill="#5e5e5e" fill-rule="evenodd"/><path d="m557.925 364.316 8.477 111.502c.098 1.288-.52 2.233-1.37 2.657-1.024.512-2.388.276-3.256-1.006l-9.86-14.687c-.421-.625-.526-.947-.582-1.692l-8.5-111.81c-.106-1.36.668-2.34 1.657-2.686.98-.34 2.18-.058 2.964 1.1l9.877 14.711c.385.582.542 1.211.593 1.911m-26.295-26.868 7.424 97.641c.085 1.217-.468 2.135-1.252 2.587-1.027.588-2.47.4-3.396-.976-11.73-17.436-53.872-80.276-55.861-83.244-.503-.763-.605-1.567-.38-2.259.248-.756.893-1.382 1.847-1.668l48.135-14.4c.973-.287 1.844-.173 2.47.281.568.413.938 1.106 1.013 2.038" fill="#e3e3e3" fill-rule="evenodd"/><path d="M470.482 359.31 584.21 528.688c2.372 3.53 5.694 6.415 9.464 8.055 4.04 1.76 8.61 2.104 13.08.302l46.254-18.787c4.95-1.984 8.155-5.475 9.197-9.58.916-3.58.181-7.642-2.47-11.57L549.37 332.738c-2.985-4.476-5.636-7.245-8.825-8.516-3.329-1.328-7.26-1.03-12.788.643l-52.637 15.741c-3.754 1.132-6.48 3.889-7.22 7.817-.689 3.613.42 7.681 2.581 10.887m88.628-32.906 110.347 164.338c4.032 5.975 5.402 12.416 4.515 18.383-1.276 8.552-7.234 16.145-16.727 19.987l-56.194 22.818c-8.469 3.404-15.539 3.592-21.7 1.12-6.259-2.506-11.597-7.762-16.539-15.173l-111.79-166.495c-5.398-8.086-6.062-16.869-3.078-24.283 2.95-7.337 9.482-13.353 18.545-16.056l57.935-17.334c7.688-2.262 14.287-2.524 20.017-.462 5.645 2.03 10.46 6.317 14.67 13.156M441.772 388.994l-96.171 143.234c-.45.673-.906 1.2-1.43 1.568-.695.483-1.517.698-2.639.612l-11.837-.991c-1.678-.143-2.954-1.046-3.55-2.272-.58-1.19-.524-2.692.418-4.103l102.192-152.196c.938-1.4 2.381-2.132 3.772-2.096 1.332.036 2.608.788 3.36 2.335 1.57 3.218 4.036 6.315 5.969 9.366.457.685.668 1.437.666 2.187 0 .814-.264 1.627-.75 2.356M469.816 295.618c2.54-2.859 5.604-4.766 8.97-5.76 2.825-.833 5.866-1.029 8.997-.606 3.13.426 6.3 1.521 9.297 3.362.798.49 1.608.655 2.256.493.577-.145 1.038-.562 1.263-1.268.251-.777.514-1.538.753-2.304a2.164 2.164 0 0 0-.103-1.552 2.743 2.743 0 0 0-.92-1.086c-3.402-2.408-7.303-4.156-11.379-5.04-4.696-1.033-9.48-.944-14.115.362-4.686 1.337-8.893 3.844-12.19 7.445a25.355 25.355 0 0 0-6.096 11.69 2.313 2.313 0 0 0 .284 1.752c.317.512.825.921 1.422 1.181.522.212 2.601 1.092 3.097 1.296.94.394 1.798.38 2.507.061.772-.349 1.376-1.067 1.64-2.026.86-3.137 2.38-5.824 4.317-8m12.525 2.438c-4.38 1.53-6.617 6.381-4.578 11.01 2.04 4.631 7.698 6.978 12.187 5.087 4.49-1.886 6.03-6.98 3.88-11.25-2.15-4.27-7.11-6.374-11.489-4.847m23.405-21.953c-.29.894-.595 1.796-.887 2.714a1.533 1.533 0 0 1-1.06 1.051c-.63.191-1.409.06-2.023-.299a42.164 42.164 0 0 0-13.396-5.089c-5.684-1.074-11.385-.965-17.002.451-5.789 1.477-11.018 4.221-15.442 8.25-3.795 3.482-6.87 7.87-8.792 12.654-.339.825-.907 1.47-1.598 1.855-.834.461-1.849.551-2.877.12-1.483-.614-2.974-1.235-4.462-1.855a2.472 2.472 0 0 1-1.416-1.439 2.198 2.198 0 0 1 .06-1.692 45.1 45.1 0 0 1 12.583-15.9c5.477-4.36 11.838-7.346 18.653-8.898 6.478-1.464 13.25-1.584 19.78-.39 5.793 1.051 11.371 3.097 16.501 5.985.47.231.857.572 1.11.956.318.481.437 1.035.268 1.526" fill="#0988e3" fill-rule="evenodd"/></g></g></svg>