<svg xmlns="http://www.w3.org/2000/svg" xmlns:xlink="http://www.w3.org/1999/xlink" version="1.1" width="2777.7777pt" height="2777.7777pt" viewBox="0 0 2777.7777 2777.7777">
<defs>
<clipPath id="clip_1">
<path transform="matrix(2.7777777,0,0,-2.7777777,0,2777.7777)" d="M0 1000H1000V0H0Z"/>
</clipPath>
</defs>
<g id="layer_1" data-name="Направляющие для монтажной области">
</g>
<g id="layer_1" data-name="Layer 1">
<g clip-path="url(#clip_1)">
<path transform="matrix(2.7777777,0,0,-2.7777777,583.3483,1843.6821)" d="M0 0V68.55C0 69.981 .496 71.211 1.487 72.238 2.478 73.266 3.689 73.78 5.121 73.78H21.308C22.593 73.78 23.951 73.266 25.383 72.238 26.814 71.211 27.989 69.981 28.907 68.55L62.163 17.398V68.66C62.163 70.092 62.667 71.303 63.677 72.294 64.686 73.285 65.907 73.78 67.338 73.78H76.809C78.24 73.78 79.46 73.285 80.47 72.294 81.479 71.303 81.984 70.055 81.984 68.55V0C81.984-1.432 81.479-2.652 80.47-3.662 79.46-4.672 78.24-5.176 76.809-5.176H58.529C57.097-5.176 55.629-4.672 54.124-3.662 52.619-2.652 51.426-1.432 50.545 0L20.097 47.241V0C20.097-1.432 19.592-2.652 18.583-3.662 17.573-4.672 16.353-5.176 14.921-5.176H5.231C3.799-5.176 2.569-4.672 1.542-3.662 .514-2.652 0-1.432 0 0" fill="#0988e3"/>
<path transform="matrix(2.7777777,0,0,-2.7777777,861.24276,1843.3756)" d="M0 0V68.55C0 69.981 .514 71.192 1.542 72.184 2.569 73.175 3.799 73.67 5.231 73.67H68.715C70.146 73.67 71.367 73.155 72.376 72.128 73.386 71.101 73.891 69.871 73.891 68.439V63.264C73.891 61.832 73.386 60.611 72.376 59.603 71.367 58.592 70.146 58.088 68.715 58.088H20.758V42.065H62.053C63.484 42.065 64.704 41.561 65.714 40.552 66.724 39.541 67.229 38.321 67.229 36.89V31.714C67.229 30.282 66.724 29.062 65.714 28.053 64.704 27.043 63.484 26.539 62.053 26.539H20.758V10.296H68.605C70 10.296 71.193 9.801 72.184 8.81 73.175 7.818 73.67 6.606 73.67 5.175V-.11C73.67-1.542 73.156-2.763 72.129-3.772 71.101-4.782 69.871-5.286 68.44-5.286H5.231C3.799-5.286 2.569-4.782 1.542-3.772 .514-2.763 0-1.506 0 0" fill="#0988e3"/>
<path transform="matrix(2.7777777,0,0,-2.7777777,1082.853,1651.5841)" d="M0 0C-.184 .44-.275 .944-.275 1.515-.275 2.083 .045 2.743 .688 3.496 1.33 4.248 2.293 4.625 3.579 4.625H15.637C17.069 4.625 18.39 4.13 19.602 3.139 20.813 2.147 21.675 .899 22.189-.605L36.725-44.213 50.16-.605C51.224 2.881 53.408 4.625 56.712 4.625H66.843C70.146 4.625 72.33 2.881 73.395-.605L86.83-44.213 101.366-.605C101.879 .899 102.742 2.147 103.954 3.139 105.165 4.13 106.486 4.625 107.917 4.625H119.976C121.223 4.625 122.168 4.248 122.812 3.496 123.453 2.743 123.774 2.083 123.774 1.515 123.774 .944 123.7 .44 123.555 0L98.998-68.715C97.64-72.459 94.997-74.331 91.069-74.331H83.086C79.011-74.331 76.386-72.459 75.212-68.715L61.777-26.318 48.343-68.715C47.131-72.459 44.507-74.331 40.469-74.331H32.431C28.539-74.331 25.915-72.459 24.557-68.715Z" fill="#0988e3"/>
<path transform="matrix(2.7777777,0,0,-2.7777777,1439.2088,1667.6432)" d="M0 0V5.176C0 6.681 .495 7.929 1.486 8.92 2.478 9.911 3.725 10.406 5.23 10.406H75.102C76.606 10.406 77.854 9.911 78.846 8.92 79.837 7.929 80.332 6.681 80.332 5.176V0C80.332-1.506 79.837-2.744 78.846-3.717 77.854-4.689 76.606-5.176 75.102-5.176H50.545V-63.484C50.545-64.916 50.04-66.118 49.03-67.091 48.021-68.063 46.801-68.55 45.369-68.55H34.963C33.531-68.55 32.311-68.063 31.302-67.091 30.291-66.118 29.787-64.916 29.787-63.484V-5.176H5.23C3.725-5.176 2.478-4.689 1.486-3.717 .495-2.744 0-1.506 0 0" fill="#0988e3"/>
<path transform="matrix(2.7777777,0,0,-2.7777777,1849.5525,1693.796)" d="M0 0C-3.708 4.404-9.7 6.607-17.977 6.607-26.255 6.607-32.257 4.404-35.981 0-39.708-4.405-41.57-10.967-41.57-19.685-41.57-28.402-39.708-34.955-35.981-39.341-32.257-43.728-26.255-45.92-17.977-45.92-9.7-45.92-3.708-43.728 0-39.341 3.707-34.955 5.562-28.402 5.562-19.685 5.562-10.967 3.707-4.405 0 0M15.06-50.958C7.552-57.548-3.46-60.842-17.977-60.842-32.495-60.842-43.517-57.548-51.041-50.958-58.565-44.37-62.328-33.937-62.328-19.656-62.328-5.378-58.565 5.046-51.041 11.617-43.517 18.187-32.495 21.474-17.977 21.474-3.46 21.474 7.552 18.187 15.06 11.617 22.565 5.046 26.319-5.378 26.319-19.656 26.319-33.937 22.565-44.37 15.06-50.958" fill="#0988e3"/>
<path transform="matrix(2.7777777,0,0,-2.7777777,1960.2782,1843.6821)" d="M0 0V68.55C0 69.981 .495 71.211 1.486 72.238 2.478 73.266 3.688 73.78 5.12 73.78H21.308C22.592 73.78 23.951 73.266 25.382 72.238 26.813 71.211 27.988 69.981 28.906 68.55L62.162 17.398V68.66C62.162 70.092 62.667 71.303 63.677 72.294 64.686 73.285 65.906 73.78 67.338 73.78H76.809C78.24 73.78 79.46 73.285 80.47 72.294 81.479 71.303 81.984 70.055 81.984 68.55V0C81.984-1.432 81.479-2.652 80.47-3.662 79.46-4.672 78.24-5.176 76.809-5.176H58.528C57.097-5.176 55.628-4.672 54.124-3.662 52.618-2.652 51.426-1.432 50.545 0L20.097 47.241V0C20.097-1.432 19.592-2.652 18.582-3.662 17.572-4.672 16.353-5.176 14.921-5.176H5.23C3.799-5.176 2.568-4.672 1.541-3.662 .513-2.652 0-1.432 0 0" fill="#0988e3"/>
<path transform="matrix(2.7777777,0,0,-2.7777777,948.0278,1992.6133)" d="M0 0C0 .667 .198 1.145 .593 1.433 .989 1.721 1.373 1.865 1.746 1.865H3.764C4.781 1.865 5.555 1.311 6.086 .203 6.617-.904 7.81-1.458 9.663-1.458L15.597-1.576C17.586-1.576 18.581-.927 18.581 .373 18.581 1.356 17.365 2.13 14.936 2.695 13.851 2.955 12.652 3.213 11.341 3.467 10.03 3.722 8.728 4.04 7.434 4.425 6.14 4.809 4.95 5.261 3.865 5.781 2.78 6.301 1.901 7.016 1.229 7.926 .557 8.835 .22 9.906 .22 11.138 .22 13.41 1.028 15.158 2.645 16.385 4.261 17.611 7.041 18.225 10.985 18.225L15.292 18.123C17.608 18.123 19.696 17.526 21.556 16.334 23.415 15.142 24.344 13.652 24.344 11.867 24.344 11.2 24.146 10.72 23.751 10.426 23.355 10.132 22.977 9.985 22.615 9.985H20.598C19.581 9.985 18.806 10.542 18.275 11.655 17.744 12.769 16.552 13.325 14.698 13.325L9.595 13.427C7.606 13.427 6.612 12.776 6.612 11.478 6.612 10.766 7.242 10.183 8.502 9.731 9.762 9.279 11.288 8.881 13.079 8.536 14.87 8.191 16.67 7.775 18.479 7.29 20.287 6.804 21.821 6.004 23.082 4.891 24.341 3.777 24.972 2.391 24.972 .729 24.972-1.543 24.161-3.292 22.539-4.518 20.917-5.744 18.14-6.357 14.207-6.357L9.07-6.256C6.753-6.256 4.662-5.659 2.797-4.467 .932-3.274 0-1.786 0 0" fill="#5e5e5e"/>
<path transform="matrix(2.7777777,0,0,-2.7777777,1038.5741,2005.3738)" d="M0 0V21.038C0 21.502 .152 21.892 .458 22.208 .763 22.524 1.136 22.683 1.577 22.683H8.477C8.917 22.683 9.335 22.524 9.731 22.208 10.126 21.892 10.392 21.513 10.528 21.072L15.529 6.595 20.53 21.072C20.666 21.513 20.931 21.892 21.327 22.208 21.722 22.524 22.141 22.683 22.582 22.683H29.481C29.922 22.683 30.292 22.524 30.592 22.208 30.891 21.892 31.041 21.502 31.041 21.038V0C31.041-.464 30.885-.851 30.575-1.162 30.264-1.473 29.888-1.628 29.447-1.628H26.396C25.955-1.628 25.579-1.473 25.269-1.162 24.958-.851 24.802-.464 24.802 0V16.562L18.818-.103C18.659-.521 18.382-.879 17.987-1.179 17.591-1.479 17.173-1.628 16.732-1.628H14.308C13.868-1.628 13.452-1.479 13.062-1.179 12.672-.879 12.393-.521 12.223-.103L6.255 16.562V0C6.255-.464 6.1-.851 5.79-1.162 5.479-1.473 5.103-1.628 4.662-1.628H1.61C1.17-1.628 .791-1.473 .475-1.162 .158-.851 0-.464 0 0" fill="#5e5e5e"/>
<path transform="matrix(2.7777777,0,0,-2.7777777,1169.1013,1980.2761)" d="M0 0H10.799V8.85H5.967C4.882 8.85 3.936 8.542 3.127 7.926 2.319 7.31 1.774 6.481 1.492 5.442ZM-8.917-9.104-4.662 7.036C-3.509 11.433 .243 13.636 6.594 13.647H15.732C16.15 13.647 16.498 13.489 16.775 13.173 17.052 12.856 17.19 12.489 17.19 12.071V-9.104C17.19-9.544 17.032-9.914 16.715-10.214 16.399-10.514 16.021-10.663 15.58-10.663H12.393C11.929-10.663 11.547-10.514 11.248-10.214 10.948-9.914 10.799-9.533 10.799-9.069V-4.797H-1.255L-2.391-9.069C-2.504-9.533-2.758-9.914-3.153-10.214-3.549-10.514-3.967-10.663-4.408-10.663H-7.748C-8.188-10.663-8.505-10.536-8.697-10.281-8.89-10.027-8.982-9.805-8.977-9.612-8.971-9.42-8.951-9.25-8.917-9.104" fill="#5e5e5e"/>
<path transform="matrix(2.7777777,0,0,-2.7777777,1259.6449,1971.8939)" d="M0 0H7.222C8.386 0 9.412 .231 10.299 .695 11.186 1.159 11.63 1.899 11.63 2.916 11.63 3.934 11.186 4.674 10.299 5.137 9.412 5.601 8.386 5.832 7.222 5.832H0ZM18.852-12.952C18.852-13.438 18.563-13.681 17.987-13.681H13.918C13.489-13.681 13.017-13.525 12.503-13.215 11.988-12.903 11.596-12.528 11.325-12.087L8.443-7.577C7.256-5.725 5.82-4.797 4.137-4.797H0V-12.087C0-12.528-.155-12.903-.466-13.215-.777-13.525-1.153-13.681-1.593-13.681H-4.781C-5.221-13.681-5.6-13.525-5.917-13.215-6.233-12.903-6.391-12.528-6.391-12.087V9.02C-6.391 9.46-6.239 9.839-5.934 10.155-5.628 10.472-5.255 10.63-4.814 10.63H9.172C11.76 10.63 13.882 9.935 15.538 8.545 17.193 7.154 18.021 5.278 18.021 2.916 18.021-.373 15.891-2.436 11.63-3.271 12.308-3.521 12.935-3.947 13.512-4.552 14.088-5.156 14.749-6.035 15.495-7.187L18.581-12.087C18.761-12.403 18.852-12.691 18.852-12.952" fill="#5e5e5e"/>
<path transform="matrix(2.7777777,0,0,-2.7777777,1325.1383,1951.2667)" d="M0 0V1.594C0 2.057 .153 2.441 .458 2.746 .763 3.052 1.147 3.204 1.611 3.204H23.124C23.587 3.204 23.972 3.052 24.276 2.746 24.582 2.441 24.734 2.057 24.734 1.594V0C24.734-.464 24.582-.845 24.276-1.145 23.972-1.444 23.587-1.594 23.124-1.594H15.563V-19.547C15.563-19.987 15.408-20.357 15.097-20.657 14.786-20.957 14.41-21.106 13.969-21.106H10.765C10.325-21.106 9.949-20.957 9.638-20.657 9.327-20.357 9.172-19.987 9.172-19.547V-1.594H1.611C1.147-1.594 .763-1.444 .458-1.145 .153-.845 0-.464 0 0" fill="#5e5e5e"/>
<path transform="matrix(2.7777777,0,0,-2.7777777,1458.4312,2005.4689)" d="M0 0V21.106C0 21.547 .158 21.926 .476 22.242 .791 22.559 1.182 22.717 1.645 22.717H4.798C5.239 22.717 5.614 22.559 5.926 22.242 6.236 21.926 6.392 21.547 6.392 21.106V13.478H18.056V21.106C18.056 21.547 18.214 21.926 18.53 22.242 18.847 22.559 19.226 22.717 19.666 22.717H22.819C23.282 22.717 23.669 22.559 23.98 22.242 24.291 21.926 24.446 21.547 24.446 21.106V0C24.446-.441 24.285-.816 23.964-1.128 23.642-1.438 23.26-1.594 22.819-1.594H19.666C19.226-1.594 18.847-1.444 18.53-1.145 18.214-.845 18.056-.475 18.056-.034V8.68H6.392V-.034C6.392-.475 6.236-.845 5.926-1.145 5.614-1.444 5.239-1.594 4.798-1.594H1.645C1.204-1.594 .819-1.438 .492-1.128 .164-.816 0-.441 0 0" fill="#5e5e5e"/>
<path transform="matrix(2.7777777,0,0,-2.7777777,1600.8735,1959.3207)" d="M0 0C-1.142 1.356-2.986 2.035-5.535 2.035-8.084 2.035-9.932 1.356-11.078 0-12.226-1.355-12.799-3.376-12.799-6.061-12.799-8.745-12.226-10.762-11.078-12.112-9.932-13.463-8.084-14.139-5.535-14.139-2.986-14.139-1.142-13.463 0-12.112 1.142-10.762 1.713-8.745 1.713-6.061 1.713-3.376 1.142-1.355 0 0M4.637-15.689C2.325-17.719-1.065-18.732-5.535-18.732-10.005-18.732-13.398-17.719-15.715-15.689-18.032-13.661-19.19-10.448-19.19-6.052-19.19-1.655-18.032 1.555-15.715 3.577-13.398 5.601-10.005 6.612-5.535 6.612-1.065 6.612 2.325 5.601 4.637 3.577 6.948 1.555 8.104-1.655 8.104-6.052 8.104-10.448 6.948-13.661 4.637-15.689" fill="#5e5e5e"/>
<path transform="matrix(2.7777777,0,0,-2.7777777,1644.6099,2005.3738)" d="M0 0V21.038C0 21.502 .153 21.892 .458 22.208 .764 22.524 1.137 22.683 1.577 22.683H8.477C8.918 22.683 9.336 22.524 9.731 22.208 10.127 21.892 10.393 21.513 10.528 21.072L15.529 6.595 20.53 21.072C20.666 21.513 20.932 21.892 21.327 22.208 21.723 22.524 22.141 22.683 22.582 22.683H29.481C29.923 22.683 30.292 22.524 30.592 22.208 30.892 21.892 31.041 21.502 31.041 21.038V0C31.041-.464 30.886-.851 30.575-1.162 30.264-1.473 29.889-1.628 29.447-1.628H26.396C25.955-1.628 25.579-1.473 25.269-1.162 24.958-.851 24.803-.464 24.803 0V16.562L18.818-.103C18.66-.521 18.383-.879 17.987-1.179 17.592-1.479 17.174-1.628 16.733-1.628H14.309C13.868-1.628 13.452-1.479 13.063-1.179 12.673-.879 12.393-.521 12.224-.103L6.256 16.562V0C6.256-.464 6.101-.851 5.79-1.162 5.479-1.473 5.104-1.628 4.662-1.628H1.611C1.17-1.628 .791-1.473 .476-1.162 .158-.851 0-.464 0 0" fill="#5e5e5e"/>
<path transform="matrix(2.7777777,0,0,-2.7777777,1755.9215,2005.3738)" d="M0 0V21.106C0 21.547 .158 21.92 .476 22.225 .791 22.53 1.17 22.683 1.611 22.683H21.158C21.599 22.683 21.975 22.524 22.285 22.208 22.596 21.892 22.751 21.513 22.751 21.072V19.479C22.751 19.038 22.596 18.662 22.285 18.352 21.975 18.04 21.599 17.885 21.158 17.885H6.392V12.951H19.106C19.547 12.951 19.923 12.796 20.233 12.485 20.545 12.175 20.7 11.799 20.7 11.358V9.765C20.7 9.323 20.545 8.948 20.233 8.637 19.923 8.326 19.547 8.171 19.106 8.171H6.392V3.17H21.124C21.553 3.17 21.921 3.018 22.226 2.712 22.531 2.407 22.684 2.034 22.684 1.593V-.034C22.684-.476 22.525-.851 22.209-1.162 21.893-1.473 21.514-1.628 21.073-1.628H1.611C1.17-1.628 .791-1.473 .476-1.162 .158-.851 0-.464 0 0" fill="#5e5e5e"/>
<path transform="matrix(2.7777777,0,0,-2.7777777,1181.0044,1373.23)" d="M0 0V-17.852C0-18.686 .294-19.458 .792-20.047 1.345-20.703 2.151-21.134 3.085-21.173L21.197-21.951C22.312-21.994 23.187-21.638 23.76-20.991 24.246-20.436 24.512-19.672 24.512-18.762V-.875C24.512 .132 24.191 .962 23.634 1.559 23.023 2.212 22.12 2.591 21.032 2.617L3.174 3.042C2.303 3.064 1.542 2.794 .983 2.306 .37 1.769 0 .968 0 0M33.115 32.253V14.283C33.115 13.157 33.509 12.259 34.183 11.656 34.801 11.104 35.662 10.792 36.678 10.771L55.417 10.412C56.457 10.395 57.399 10.745 58.049 11.383 58.619 11.938 58.967 12.716 58.967 13.659V32.396C58.967 33.284 58.582 34.1 57.971 34.692 57.295 35.347 56.43 35.671 55.496 35.671H36.653C35.639 35.671 34.778 35.379 34.163 34.837 33.499 34.254 33.115 33.376 33.115 32.253M0 32.306V14.684C0 13.714 .36 12.874 .969 12.286 1.521 11.756 2.284 11.43 3.167 11.413L21.042 11.07C22.088 11.046 22.995 11.356 23.615 11.955 24.179 12.497 24.512 13.28 24.512 14.262V32.399C24.512 33.313 24.186 34.107 23.636 34.682 23.044 35.303 22.185 35.671 21.202 35.671H3.299C2.324 35.671 1.531 35.378 .969 34.851 .344 34.265 0 33.388 0 32.306M33.115-.889V-19.091C33.115-20.096 33.462-20.938 34.051-21.544 34.667-22.178 35.552-22.559 36.585-22.61L55.401-23.415C56.496-23.463 57.464-23.124 58.114-22.466 58.646-21.923 58.967-21.167 58.967-20.228V-1.762C58.967-.819 58.67-.023 58.161 .571 57.506 1.335 56.5 1.779 55.319 1.8L36.607 2.248C35.677 2.269 34.822 2.01 34.193 1.501 33.532 .97 33.115 .159 33.115-.889" fill="#5e5e5e" fill-rule="evenodd"/>
<path transform="matrix(2.7777777,0,0,-2.7777777,1549.791,1011.99)" d="M0 0 8.477-111.502C8.575-112.79 7.957-113.735 7.108-114.159 6.083-114.671 4.719-114.435 3.851-113.153L-6.008-98.466C-6.43-97.841-6.535-97.519-6.591-96.774L-15.09 15.036C-15.197 16.396-14.423 17.377-13.434 17.722-12.453 18.062-11.254 17.78-10.47 16.623L-.593 1.911C-.208 1.329-.051 .7 0 0M-26.295 26.868-18.871-70.773C-18.786-71.99-19.339-72.908-20.123-73.36-21.15-73.948-22.593-73.759-23.519-72.384-35.248-54.948-77.391 7.892-79.38 10.86-79.883 11.623-79.985 12.427-79.76 13.119-79.512 13.875-78.867 14.501-77.913 14.787L-29.778 29.187C-28.805 29.474-27.934 29.36-27.308 28.906-26.74 28.493-26.37 27.8-26.295 26.868" fill="#e3e3e3" fill-rule="evenodd"/>
<path transform="matrix(2.7777777,0,0,-2.7777777,1306.8955,998.08468)" d="M0 0 113.727-169.376C116.099-172.907 119.421-175.792 123.191-177.432 127.231-179.191 131.8-179.535 136.27-177.733L182.525-158.947C187.474-156.962 190.68-153.471 191.722-149.366 192.638-145.787 191.903-141.725 189.251-137.797L78.889 26.572C75.904 31.049 73.253 33.817 70.064 35.088 66.735 36.417 62.803 36.119 57.276 34.446L4.639 18.704C.885 17.573-1.841 14.816-2.582 10.888-3.27 7.274-2.162 3.206 0 0M88.628 32.907 198.975-131.432C203.007-137.407 204.377-143.847 203.49-149.815 202.214-158.366 196.256-165.96 186.763-169.802L130.569-192.62C122.1-196.024 115.03-196.211 108.869-193.739 102.61-191.233 97.272-185.977 92.33-178.566L-19.461-12.071C-24.858-3.986-25.522 4.797-22.538 12.211-19.589 19.549-13.056 25.565-3.993 28.268L53.942 45.602C61.63 47.864 68.229 48.126 73.959 46.063 79.604 44.034 84.419 39.746 88.628 32.907" fill="#0988e3" fill-rule="evenodd"/>
<path transform="matrix(2.7777777,0,0,-2.7777777,1227.1458,1080.5381)" d="M0 0-96.172-143.234C-96.622-143.907-97.077-144.435-97.602-144.802-98.296-145.285-99.119-145.5-100.24-145.414L-112.077-144.423C-113.755-144.28-115.031-143.377-115.628-142.151-116.208-140.961-116.152-139.459-115.21-138.048L-13.017 14.148C-12.079 15.548-10.636 16.28-9.245 16.244-7.914 16.208-6.638 15.456-5.886 13.909-4.316 10.691-1.849 7.594 .083 4.543 .54 3.858 .752 3.106 .75 2.356 .749 1.542 .485 .729 0 0" fill="#0988e3" fill-rule="evenodd"/>
<path transform="matrix(2.7777777,0,0,-2.7777777,1305.0455,821.1617)" d="M0 0C2.54 2.859 5.604 4.766 8.97 5.76 11.795 6.593 14.836 6.789 17.967 6.366 21.097 5.94 24.266 4.845 27.264 3.004 28.062 2.515 28.872 2.349 29.52 2.511 30.097 2.656 30.558 3.073 30.783 3.779 31.034 4.556 31.297 5.317 31.536 6.083 31.705 6.631 31.645 7.164 31.433 7.635 31.242 8.056 30.922 8.43 30.513 8.721 27.111 11.129 23.21 12.877 19.134 13.762 14.438 14.794 9.654 14.705 5.019 13.399 .333 12.062-3.874 9.555-7.172 5.954-10.198 2.669-12.303-1.377-13.267-5.736-13.414-6.4-13.286-6.993-12.983-7.488-12.666-8-12.158-8.409-11.561-8.669-11.039-8.881-8.96-9.761-8.464-9.965-7.525-10.359-6.666-10.345-5.957-10.026-5.185-9.677-4.581-8.959-4.317-8-3.457-4.863-1.938-2.176 0 0M12.525-2.438C8.144-3.967 5.908-8.819 7.947-13.448 9.987-18.079 15.645-20.426 20.134-18.535 24.624-16.649 26.164-11.555 24.014-7.285 21.863-3.014 16.904-.911 12.525-2.438M35.93 19.515C35.639 18.621 35.335 17.719 35.043 16.801 34.867 16.232 34.466 15.896 33.983 15.75 33.352 15.559 32.574 15.69 31.96 16.049 27.846 18.481 23.258 20.235 18.564 21.138 12.88 22.212 7.179 22.103 1.562 20.687-4.227 19.21-9.456 16.466-13.88 12.438-17.675 8.955-20.75 4.568-22.672-.217-23.011-1.042-23.579-1.687-24.27-2.072-25.104-2.533-26.119-2.623-27.147-2.191-28.63-1.578-30.121-.957-31.609-.337-32.284-.074-32.793 .47-33.025 1.102-33.221 1.638-33.223 2.239-32.966 2.794-30.033 8.978-25.727 14.424-20.382 18.695-14.905 23.054-8.544 26.04-1.729 27.592 4.749 29.056 11.521 29.176 18.051 27.982 23.844 26.931 29.422 24.885 34.552 21.997 35.022 21.766 35.409 21.425 35.662 21.041 35.98 20.56 36.099 20.006 35.93 19.515" fill="#0988e3" fill-rule="evenodd"/>
</g>
</g>
</svg>
